<?xml version="1.0" encoding="utf-8"?>
<!-- Generator: Adobe Illustrator 25.0.1, SVG Export Plug-In . SVG Version: 6.00 Build 0)  -->
<svg version="1.1" id="Lag_1" xmlns="http://www.w3.org/2000/svg" xmlns:xlink="http://www.w3.org/1999/xlink" x="0px" y="0px"
	 viewBox="0 0 500 500" style="enable-background:new 0 0 500 500;" xml:space="preserve">
<style type="text/css">
	.st0{fill:#DB1F99;}
</style>
<g>
	<g>
		<path d="M21.7,141.4c-5.1,0-9.2-4.1-9.2-9.2v-57c0-5.1,4.1-9.2,9.2-9.2h461.8c5.1,0,9.2,4.1,9.2,9.2v57c0,5.1-4.1,9.2-9.2,9.2
			H21.7z"/>
		<path d="M483.5,66.7c4.7,0,8.5,3.8,8.5,8.5v57c0,4.7-3.8,8.5-8.5,8.5H21.7c-4.7,0-8.5-3.8-8.5-8.5v-57c0-4.7,3.8-8.5,8.5-8.5
			H483.5 M483.5,65.1H21.7c-5.5,0-10,4.5-10,10v57c0,5.5,4.5,10,10,10h461.8c5.5,0,10-4.5,10-10v-57C493.5,69.6,489,65.1,483.5,65.1
			L483.5,65.1z"/>
	</g>
	<g>
		<path class="st0" d="M16.5,134.1c-5.1,0-9.2-4.1-9.2-9.2v-57c0-5.1,4.1-9.2,9.2-9.2h461.8c5.1,0,9.2,4.1,9.2,9.2v57
			c0,5.1-4.1,9.2-9.2,9.2H16.5z"/>
		<path class="st0" d="M478.3,59.4c4.7,0,8.5,3.8,8.5,8.5v57c0,4.7-3.8,8.5-8.5,8.5H16.5c-4.7,0-8.5-3.8-8.5-8.5v-57
			c0-4.7,3.8-8.5,8.5-8.5H478.3 M478.3,57.9H16.5c-5.5,0-10,4.5-10,10v57c0,5.5,4.5,10,10,10h461.8c5.5,0,10-4.5,10-10v-57
			C488.3,62.3,483.8,57.9,478.3,57.9L478.3,57.9z"/>
	</g>
</g>
<g>
	<g>
		<path d="M21.7,291.4c-5.1,0-9.2-4.1-9.2-9.2v-57c0-5.1,4.1-9.2,9.2-9.2h461.8c5.1,0,9.2,4.1,9.2,9.2v57c0,5.1-4.1,9.2-9.2,9.2
			H21.7z"/>
		<path d="M483.5,216.7c4.7,0,8.5,3.8,8.5,8.5v57c0,4.7-3.8,8.5-8.5,8.5H21.7c-4.7,0-8.5-3.8-8.5-8.5v-57c0-4.7,3.8-8.5,8.5-8.5
			H483.5 M483.5,215.1H21.7c-5.5,0-10,4.5-10,10v57c0,5.5,4.5,10,10,10h461.8c5.5,0,10-4.5,10-10v-57
			C493.5,219.6,489,215.1,483.5,215.1L483.5,215.1z"/>
	</g>
	<g>
		<path class="st0" d="M16.5,284.1c-5.1,0-9.2-4.1-9.2-9.2v-57c0-5.1,4.1-9.2,9.2-9.2h461.8c5.1,0,9.2,4.1,9.2,9.2v57
			c0,5.1-4.1,9.2-9.2,9.2H16.5z"/>
		<path class="st0" d="M478.3,209.4c4.7,0,8.5,3.8,8.5,8.5v57c0,4.7-3.8,8.5-8.5,8.5H16.5c-4.7,0-8.5-3.8-8.5-8.5v-57
			c0-4.7,3.8-8.5,8.5-8.5H478.3 M478.3,207.9H16.5c-5.5,0-10,4.5-10,10v57c0,5.5,4.5,10,10,10h461.8c5.5,0,10-4.5,10-10v-57
			C488.3,212.3,483.8,207.9,478.3,207.9L478.3,207.9z"/>
	</g>
</g>
<g>
	<g>
		<path d="M21.7,441.4c-5.1,0-9.2-4.1-9.2-9.2v-57c0-5.1,4.1-9.2,9.2-9.2h461.8c5.1,0,9.2,4.1,9.2,9.2v57c0,5.1-4.1,9.2-9.2,9.2
			H21.7z"/>
		<path d="M483.5,366.7c4.7,0,8.5,3.8,8.5,8.5v57c0,4.7-3.8,8.5-8.5,8.5H21.7c-4.7,0-8.5-3.8-8.5-8.5v-57c0-4.7,3.8-8.5,8.5-8.5
			H483.5 M483.5,365.1H21.7c-5.5,0-10,4.5-10,10v57c0,5.5,4.5,10,10,10h461.8c5.5,0,10-4.5,10-10v-57
			C493.5,369.6,489,365.1,483.5,365.1L483.5,365.1z"/>
	</g>
	<g>
		<path class="st0" d="M16.5,434.1c-5.1,0-9.2-4.1-9.2-9.2v-57c0-5.1,4.1-9.2,9.2-9.2h461.8c5.1,0,9.2,4.1,9.2,9.2v57
			c0,5.1-4.1,9.2-9.2,9.2H16.5z"/>
		<path class="st0" d="M478.3,359.4c4.7,0,8.5,3.8,8.5,8.5v57c0,4.7-3.8,8.5-8.5,8.5H16.5c-4.7,0-8.5-3.8-8.5-8.5v-57
			c0-4.7,3.8-8.5,8.5-8.5H478.3 M478.3,357.9H16.5c-5.5,0-10,4.5-10,10v57c0,5.5,4.5,10,10,10h461.8c5.5,0,10-4.5,10-10v-57
			C488.3,362.3,483.8,357.9,478.3,357.9L478.3,357.9z"/>
	</g>
</g>
</svg>
