<?xml version="1.0" encoding="utf-8"?>
<!-- Generator: Adobe Illustrator 25.0.1, SVG Export Plug-In . SVG Version: 6.00 Build 0)  -->
<svg version="1.1" xmlns="http://www.w3.org/2000/svg" xmlns:xlink="http://www.w3.org/1999/xlink" x="0px" y="0px"
	 viewBox="0 0 248.5 235.7" style="enable-background:new 0 0 248.5 235.7;" xml:space="preserve">
<style type="text/css">
	.st0{display:none;}
	.st1{display:inline;fill:url(#SVGID_1_);}
	.st2{display:inline;fill:#E6007E;stroke:#C6C6C6;stroke-width:4.3428;stroke-miterlimit:10;}
	.st3{display:inline;fill:url(#SVGID_2_);}
	.st4{display:inline;fill:#E6007E;stroke:#B2B2B2;stroke-width:3.0874;stroke-miterlimit:10;}
	.st5{display:inline;fill:#E6007E;stroke:#B2B2B2;stroke-width:3;stroke-miterlimit:10;}
	.st6{display:inline;}
	.st7{fill:#878787;}
	.st8{display:inline;fill:#E6007E;stroke:#9D9D9C;stroke-width:3;stroke-miterlimit:10;}
	.st9{fill:url(#SVGID_3_);}
	.st10{fill:#E6007E;stroke:#B2B2B2;stroke-width:3.6705;stroke-miterlimit:10;}
	.st11{fill:#C6C6C6;}
	.st12{font-family:'Goldman-Bold';}
	.st13{font-size:59.6459px;}
	.st14{display:inline;fill:url(#SVGID_4_);}
	.st15{fill:#E6007E;stroke:#C6C6C6;stroke-width:3.4776;stroke-miterlimit:10;}
	.st16{fill:none;stroke:#C6C6C6;stroke-width:3.4776;stroke-miterlimit:10;}
	.st17{fill:#E6007E;stroke:#C6C6C6;stroke-width:4.7835;stroke-miterlimit:10;}
	.st18{fill:none;stroke:#C6C6C6;stroke-width:4.7835;stroke-miterlimit:10;}
</style>
<g id="Layer_1">
</g>
<g id="Scissor" class="st0">
	<linearGradient id="SVGID_1_" gradientUnits="userSpaceOnUse" x1="637.2839" y1="-191.2237" x2="900.708" y2="-191.2237">
		<stop  offset="0" style="stop-color:#4D4D4D"/>
		<stop  offset="0.5155" style="stop-color:#FFFFFF"/>
		<stop  offset="1" style="stop-color:#4D4D4D"/>
	</linearGradient>
	<ellipse class="st1" cx="769" cy="-191.2" rx="131.7" ry="127"/>
	<path class="st2" d="M860.1-268.7c0.9,31.9-66,67.1-88.8,87.3l-11.7-14.2C793.5-219.2,827.2-244.2,860.1-268.7z"/>
	<path class="st2" d="M797-305c-3.6,2.3-8.3,5.8-12.7,11c-7,8.2-10.1,16.7-11.5,21.8c-3.7,12.5-7.4,25.1-11.1,37.6
		c-4.8,16.7-9.6,33.4-14.5,50.1l21.6,4l8.6-36.1c5.7-25.4,11.3-50.8,17-76.2C795.3-296.8,796.1-300.9,797-305z"/>
	<path class="st2" d="M746.3-182.9c-1.7,1.3-4.2,3.1-7.3,5.3c-4.4,3.1-6.6,4.6-8.7,5.6c-5.4,2.4-10.3,2.5-11.9,2.5
		c-6.3-0.1-11.1-2.4-13.5-3.7c-2.7-1.8-7.7-4.7-14.6-5.4c-3.3-0.3-6.1-0.1-8.3,0.3c-2.3,0.2-5.4,0.8-8.8,2.3
		c-4.5,1.9-7.7,4.5-9.6,6.3c-1.5,1.9-3.6,5.1-5,9.4c-1.6,5-1.5,9.1-1.4,11.5c0.2,4.2,0.3,9,3.4,14c1,1.6,3.8,5.7,9.2,8.3
		c5.4,2.6,10.3,2.2,15.5,1.7c5.6-0.5,9.7-1.9,13.2-3.1c5.4-1.9,9.6-4.2,12.6-6c9.1-6.3,18.3-12.6,27.4-18.9l-9.6,35.5
		c-0.9,3.5-1.7,8.3-1.4,14.1c0.2,4.1,0.9,7.6,1.7,10.3c1.2,4.2,3.9,6.6,4.5,7.2c0.5,0.6,2.5,2.6,5.7,4.3c2.4,1.3,4.4,1.8,6.7,2.4
		c1.3,0.3,3.3,0.9,6,1.1c1.7,0.1,4.3,0.4,7.5-0.2c2-0.3,4.9-1.1,8.2-2.9c1.9-1,4.6-2.7,7.2-5.6c2.5-2.8,3.7-5.5,4.3-6.9
		c0.9-2,2.1-5,2.3-9c0.2-4.8-1.3-8.4-2.1-10.3c-1.4-3.3-3.1-5.5-4.2-6.7c-2.5-3.1-3.9-3.7-6.2-6.2c-1.7-1.8-3.9-4.8-5.7-9.3
		c-1-3-2.1-7.5-2.1-13.1c-0.1-5.7,1-9.9,2.6-15.9c0.9-3.6,2.4-8.5,4.7-14.1C761-179.7,753.6-181.3,746.3-182.9z"/>
</g>
<g id="Truck" class="st0">
	<linearGradient id="SVGID_2_" gradientUnits="userSpaceOnUse" x1="-290.6179" y1="-213.5529" x2="-47.3766" y2="-213.5529">
		<stop  offset="0" style="stop-color:#4D4D4D"/>
		<stop  offset="0.5155" style="stop-color:#FFFFFF"/>
		<stop  offset="1" style="stop-color:#4D4D4D"/>
	</linearGradient>
	<ellipse class="st3" cx="-169" cy="-213.6" rx="121.6" ry="116.2"/>
	<polygon class="st4" points="-136.1,-160.7 -256.2,-160.7 -256.2,-251.7 -142.3,-254.1 	"/>
	<polygon class="st5" points="-78,-160.7 -136.5,-160.7 -138.9,-203.8 -80.3,-203.8 	"/>
	<path class="st5" d="M-205.6-265.4c0,18.5-14.2,33.5-31.7,33.5s-31.7-13.2-31.7-31.7c0-18.5,14.2-33.5,31.7-33.5
		S-205.6-283.9-205.6-265.4z"/>
	<g class="st6">
		<g>
			<path class="st7" d="M-239.3-282c0,5.8,0,11.6,0.1,17.4c0,1.3,1.1,2.6,2.5,2.5c4.1-0.2,8.2-0.3,12.2-0.5c1.3-0.1,2.5-1.1,2.5-2.5
				c0-1.3-1.1-2.6-2.5-2.5c-4.1,0.2-8.2,0.3-12.2,0.5c0.8,0.8,1.7,1.7,2.5,2.5c0-5.8,0-11.6-0.1-17.4c0-1.4-1.1-2.5-2.5-2.5
				C-238.2-284.5-239.3-283.4-239.3-282L-239.3-282z"/>
		</g>
	</g>
	<circle class="st8" cx="-231.4" cy="-147.9" r="15.1"/>
	<path class="st8" d="M-177.6-147.9c0,2.9-0.8,5.6-2.2,7.9c-2.7,4.3-7.4,7.2-12.9,7.2c-4.6,0-8.7-2-11.5-5.3
		c-2.3-2.6-3.6-6.1-3.6-9.8c0-8.3,6.8-15.1,15.1-15.1C-184.4-163-177.6-156.3-177.6-147.9z"/>
	<circle class="st8" cx="-97.6" cy="-147.2" r="15.1"/>
</g>
<g id="Coin">
	<linearGradient id="SVGID_3_" gradientUnits="userSpaceOnUse" x1="3.8126" y1="118.131" x2="245.5381" y2="118.131">
		<stop  offset="0" style="stop-color:#4D4D4D"/>
		<stop  offset="0.5155" style="stop-color:#FFFFFF"/>
		<stop  offset="1" style="stop-color:#4D4D4D"/>
	</linearGradient>
	<ellipse class="st9" cx="124.7" cy="118.1" rx="120.9" ry="116.6"/>
	<ellipse class="st10" cx="124.6" cy="119.2" rx="88.4" ry="85.3"/>
	<text transform="matrix(1 0 0 1 41.188 137.9468)" class="st11 st12 st13">0 KR</text>
</g>
<g id="Phone_x2F_Card" class="st0">
	<linearGradient id="SVGID_4_" gradientUnits="userSpaceOnUse" x1="310.8007" y1="-199.9551" x2="574.2247" y2="-199.9551">
		<stop  offset="0" style="stop-color:#4D4D4D"/>
		<stop  offset="0.5155" style="stop-color:#FFFFFF"/>
		<stop  offset="1" style="stop-color:#4D4D4D"/>
	</linearGradient>
	<ellipse class="st14" cx="442.5" cy="-200" rx="131.7" ry="127"/>
	<g id="Phone" class="st6">
		<rect x="370.9" y="-296.4" class="st15" width="110.9" height="193"/>
		<circle class="st16" cx="426.4" cy="-113.8" r="6.3"/>
		<text transform="matrix(1 0 0 1 369.6262 -197.1598)" class="st11" style="font-family:'Goldman-Regular'; font-size:68px;">KR</text>
		<line class="st16" x1="370.9" y1="-125.4" x2="481.8" y2="-125.4"/>
		<line class="st16" x1="370.9" y1="-279.2" x2="481.8" y2="-279.2"/>
	</g>
	<g id="Card" class="st6">
		<rect x="424.6" y="-188.9" class="st17" width="106.5" height="62.7"/>
		<line class="st18" x1="424.4" y1="-172.2" x2="530.1" y2="-172.2"/>
		<line class="st18" x1="473.8" y1="-155.6" x2="481.3" y2="-155.6"/>
		<line class="st18" x1="444.3" y1="-155.6" x2="451.8" y2="-155.6"/>
		<line class="st18" x1="429" y1="-155.6" x2="436.5" y2="-155.6"/>
		<line class="st18" x1="459.3" y1="-155.6" x2="466.7" y2="-155.6"/>
	</g>
</g>
</svg>
