<?xml version="1.0" encoding="utf-8"?>
<!-- Generator: Adobe Illustrator 25.0.1, SVG Export Plug-In . SVG Version: 6.00 Build 0)  -->
<svg version="1.1" xmlns="http://www.w3.org/2000/svg" xmlns:xlink="http://www.w3.org/1999/xlink" x="0px" y="0px"
	 viewBox="0 0 500 500" style="enable-background:new 0 0 500 500;" xml:space="preserve">
<style type="text/css">
	.st0{fill:#DB1F99;}
	.st1{display:none;}
	.st2{display:inline;}
</style>
<g id="Cross">
	<g>
		<g>
			<path d="M111.3,443.4c-2.5,0-4.8-1-6.5-2.7l-40.3-40.3c-3.6-3.6-3.6-9.5,0-13.1L391,60.8c1.7-1.7,4.1-2.7,6.5-2.7s4.8,1,6.5,2.7
				l40.3,40.3c1.7,1.7,2.7,4.1,2.7,6.5c0,2.5-1,4.8-2.7,6.5L117.8,440.7C116.1,442.4,113.8,443.4,111.3,443.4z"/>
			<path d="M397.5,58.8c2.3,0,4.4,0.9,6,2.5l40.3,40.3c1.6,1.6,2.5,3.7,2.5,6c0,2.3-0.9,4.4-2.5,6L117.3,440.1
				c-1.6,1.6-3.7,2.5-6,2.5c-2.3,0-4.4-0.9-6-2.5L65,399.8c-3.3-3.3-3.3-8.7,0-12L391.5,61.3C393.1,59.7,395.3,58.8,397.5,58.8
				 M397.5,57.3c-2.6,0-5.1,1-7.1,2.9L63.9,386.8c-3.9,3.9-3.9,10.2,0,14.1l40.3,40.3c2,2,4.5,2.9,7.1,2.9s5.1-1,7.1-2.9
				l326.5-326.5c3.9-3.9,3.9-10.2,0-14.1l-40.3-40.3C402.6,58.3,400.1,57.3,397.5,57.3L397.5,57.3z"/>
		</g>
		<g>
			<path class="st0" d="M102.5,441.9c-2.5,0-4.8-1-6.5-2.7l-40.3-40.3c-3.6-3.6-3.6-9.5,0-13.1L382.2,59.3c1.7-1.7,4.1-2.7,6.5-2.7
				s4.8,1,6.5,2.7l40.3,40.3c3.6,3.6,3.6,9.5,0,13.1L109,439.2C107.3,441,104.9,441.9,102.5,441.9z"/>
			<path class="st0" d="M388.7,57.4c2.3,0,4.4,0.9,6,2.5l40.3,40.3c1.6,1.6,2.5,3.7,2.5,6c0,2.3-0.9,4.4-2.5,6L108.5,438.7
				c-1.6,1.6-3.7,2.5-6,2.5c-2.3,0-4.4-0.9-6-2.5l-40.3-40.3c-3.3-3.3-3.3-8.7,0-12L382.7,59.9C384.3,58.3,386.4,57.4,388.7,57.4
				 M388.7,55.8c-2.6,0-5.1,1-7.1,2.9L55.1,385.3c-3.9,3.9-3.9,10.2,0,14.1l40.3,40.3c2,2,4.5,2.9,7.1,2.9c2.6,0,5.1-1,7.1-2.9
				l326.5-326.5c3.9-3.9,3.9-10.2,0-14.1l-40.3-40.3C393.8,56.8,391.3,55.8,388.7,55.8L388.7,55.8z"/>
		</g>
	</g>
	<g>
		<g>
			<path d="M392.4,447.1c-2.5,0-4.8-1-6.5-2.7L245.9,304.5l5.1-5.2l-55.5-55.5l-5.1,5.1L59.3,117.8c-3.2-3.2-3.6-8.3-0.9-11.9
				c0.3-0.4,0.6-0.8,0.9-1.1l40.3-40.3c1.7-1.7,4.1-2.7,6.5-2.7s4.8,1,6.5,2.7L439.2,391c1.1,1.1,1.8,2.3,2.3,3.8
				c1,3.3,0.1,6.8-2.3,9.3l-40.3,40.3C397.2,446.1,394.8,447.1,392.4,447.1z"/>
			<path d="M106.2,62.5c2.3,0,4.4,0.9,6,2.5l186.1,186.1l5.1,5.1l135.3,135.3c1,1,1.7,2.1,2.1,3.5c0.9,3,0.1,6.3-2.1,8.5l-40.3,40.3
				c-1.6,1.6-3.7,2.5-6,2.5c-2.3,0-4.4-0.9-6-2.5L251.1,308.5l-4.1-4.1l4.1-4.1l1.1-1.1l-1.1-1.1l-54.4-54.5l-1.1-1.1l-1.1,1.1
				l-4.1,4.1L59.9,117.3c-2.9-2.9-3.3-7.6-0.9-11c0.2-0.3,0.5-0.7,0.9-1L100.2,65C101.8,63.4,103.9,62.5,106.2,62.5 M106.1,61
				c-2.6,0-5.1,1-7.1,2.9l-40.3,40.3c-0.4,0.4-0.7,0.8-1,1.2c-2.9,3.9-2.5,9.4,1,12.9L190.4,250l5.2-5.2l54.4,54.5l-5.2,5.1l5.2,5.1
				l135.3,135.3c2,2,4.5,2.9,7.1,2.9s5.1-1,7.1-2.9l40.3-40.3c2.7-2.7,3.5-6.6,2.5-10c-0.5-1.5-1.3-2.9-2.5-4.1L304.5,255.1
				l-5.1-5.1L113.2,63.9C111.3,62,108.7,61,106.1,61L106.1,61z"/>
		</g>
		<g>
			<path class="st0" d="M393.8,438.2c-2.5,0-4.8-1-6.5-2.7L60.8,109c-1.1-1.1-1.8-2.3-2.3-3.8c-1-3.3-0.1-6.8,2.3-9.3l40.3-40.3
				c1.7-1.7,4.1-2.7,6.5-2.7s4.8,1,6.5,2.7l326.5,326.5c3.2,3.2,3.6,8.3,0.9,11.9c-0.3,0.4-0.6,0.8-0.9,1.1l-40.3,40.3
				C398.6,437.3,396.3,438.2,393.8,438.2z"/>
			<path class="st0" d="M107.6,53.7c2.3,0,4.4,0.9,6,2.5l189.8,189.8l5.1,5.2l131.6,131.6c2.9,2.9,3.3,7.6,0.9,11
				c-0.2,0.3-0.5,0.7-0.9,1L399.8,435c-1.6,1.6-3.7,2.5-6,2.5s-4.4-0.9-6-2.5L256.2,303.4L61.3,108.5c-1-1-1.7-2.1-2.1-3.5
				c-0.9-3-0.1-6.3,2.1-8.5l40.3-40.3C103.2,54.6,105.4,53.7,107.6,53.7 M107.6,52.2c-2.6,0-5.1,1-7.1,2.9L60.2,95.4
				c-2.7,2.7-3.6,6.6-2.5,10c0.5,1.5,1.3,2.9,2.5,4.1l194.9,194.9l131.6,131.6c1.9,2,4.5,2.9,7.1,2.9s5.1-1,7.1-2.9l40.3-40.3
				c0.4-0.4,0.7-0.8,1-1.2c2.8-3.9,2.5-9.4-1-12.9L309.6,250l-5.1-5.1L114.7,55.1C112.7,53.1,110.2,52.2,107.6,52.2L107.6,52.2z"/>
		</g>
	</g>
</g>
<g id="Icon" class="st1">
	<g class="st2">
		<g>
			<path d="M21.7,141.4c-5.1,0-9.2-4.1-9.2-9.2v-57c0-5.1,4.1-9.2,9.2-9.2h461.8c5.1,0,9.2,4.1,9.2,9.2v57c0,5.1-4.1,9.2-9.2,9.2
				H21.7z"/>
			<path d="M483.5,66.7c4.7,0,8.5,3.8,8.5,8.5v57c0,4.7-3.8,8.5-8.5,8.5H21.7c-4.7,0-8.5-3.8-8.5-8.5v-57c0-4.7,3.8-8.5,8.5-8.5
				H483.5 M483.5,65.1H21.7c-5.5,0-10,4.5-10,10v57c0,5.5,4.5,10,10,10h461.8c5.5,0,10-4.5,10-10v-57
				C493.5,69.6,489,65.1,483.5,65.1L483.5,65.1z"/>
		</g>
		<g>
			<path class="st0" d="M16.5,134.1c-5.1,0-9.2-4.1-9.2-9.2v-57c0-5.1,4.1-9.2,9.2-9.2h461.8c5.1,0,9.2,4.1,9.2,9.2v57
				c0,5.1-4.1,9.2-9.2,9.2H16.5z"/>
			<path class="st0" d="M478.3,59.4c4.7,0,8.5,3.8,8.5,8.5v57c0,4.7-3.8,8.5-8.5,8.5H16.5c-4.7,0-8.5-3.8-8.5-8.5v-57
				c0-4.7,3.8-8.5,8.5-8.5H478.3 M478.3,57.9H16.5c-5.5,0-10,4.5-10,10v57c0,5.5,4.5,10,10,10h461.8c5.5,0,10-4.5,10-10v-57
				C488.3,62.3,483.8,57.9,478.3,57.9L478.3,57.9z"/>
		</g>
	</g>
	<g class="st2">
		<g>
			<path d="M21.7,291.4c-5.1,0-9.2-4.1-9.2-9.2v-57c0-5.1,4.1-9.2,9.2-9.2h461.8c5.1,0,9.2,4.1,9.2,9.2v57c0,5.1-4.1,9.2-9.2,9.2
				H21.7z"/>
			<path d="M483.5,216.7c4.7,0,8.5,3.8,8.5,8.5v57c0,4.7-3.8,8.5-8.5,8.5H21.7c-4.7,0-8.5-3.8-8.5-8.5v-57c0-4.7,3.8-8.5,8.5-8.5
				H483.5 M483.5,215.1H21.7c-5.5,0-10,4.5-10,10v57c0,5.5,4.5,10,10,10h461.8c5.5,0,10-4.5,10-10v-57
				C493.5,219.6,489,215.1,483.5,215.1L483.5,215.1z"/>
		</g>
		<g>
			<path class="st0" d="M16.5,284.1c-5.1,0-9.2-4.1-9.2-9.2v-57c0-5.1,4.1-9.2,9.2-9.2h461.8c5.1,0,9.2,4.1,9.2,9.2v57
				c0,5.1-4.1,9.2-9.2,9.2H16.5z"/>
			<path class="st0" d="M478.3,209.4c4.7,0,8.5,3.8,8.5,8.5v57c0,4.7-3.8,8.5-8.5,8.5H16.5c-4.7,0-8.5-3.8-8.5-8.5v-57
				c0-4.7,3.8-8.5,8.5-8.5H478.3 M478.3,207.9H16.5c-5.5,0-10,4.5-10,10v57c0,5.5,4.5,10,10,10h461.8c5.5,0,10-4.5,10-10v-57
				C488.3,212.3,483.8,207.9,478.3,207.9L478.3,207.9z"/>
		</g>
	</g>
	<g class="st2">
		<g>
			<path d="M21.7,441.4c-5.1,0-9.2-4.1-9.2-9.2v-57c0-5.1,4.1-9.2,9.2-9.2h461.8c5.1,0,9.2,4.1,9.2,9.2v57c0,5.1-4.1,9.2-9.2,9.2
				H21.7z"/>
			<path d="M483.5,366.7c4.7,0,8.5,3.8,8.5,8.5v57c0,4.7-3.8,8.5-8.5,8.5H21.7c-4.7,0-8.5-3.8-8.5-8.5v-57c0-4.7,3.8-8.5,8.5-8.5
				H483.5 M483.5,365.1H21.7c-5.5,0-10,4.5-10,10v57c0,5.5,4.5,10,10,10h461.8c5.5,0,10-4.5,10-10v-57
				C493.5,369.6,489,365.1,483.5,365.1L483.5,365.1z"/>
		</g>
		<g>
			<path class="st0" d="M16.5,434.1c-5.1,0-9.2-4.1-9.2-9.2v-57c0-5.1,4.1-9.2,9.2-9.2h461.8c5.1,0,9.2,4.1,9.2,9.2v57
				c0,5.1-4.1,9.2-9.2,9.2H16.5z"/>
			<path class="st0" d="M478.3,359.4c4.7,0,8.5,3.8,8.5,8.5v57c0,4.7-3.8,8.5-8.5,8.5H16.5c-4.7,0-8.5-3.8-8.5-8.5v-57
				c0-4.7,3.8-8.5,8.5-8.5H478.3 M478.3,357.9H16.5c-5.5,0-10,4.5-10,10v57c0,5.5,4.5,10,10,10h461.8c5.5,0,10-4.5,10-10v-57
				C488.3,362.3,483.8,357.9,478.3,357.9L478.3,357.9z"/>
		</g>
	</g>
</g>
</svg>
