<?xml version="1.0" encoding="utf-8"?>
<!-- Generator: Adobe Illustrator 25.0.1, SVG Export Plug-In . SVG Version: 6.00 Build 0)  -->
<svg version="1.1" id="Lag_1" xmlns="http://www.w3.org/2000/svg" xmlns:xlink="http://www.w3.org/1999/xlink" x="0px" y="0px"
	 viewBox="0 0 500 500" style="enable-background:new 0 0 500 500;" xml:space="preserve">
<style type="text/css">
	.st0{fill:#DB1F99;}
</style>
<g>
	<path d="M50,491c-5.1,0-9.3-4.2-9.3-9.3V27.3c0-5.1,4.2-9.3,9.3-9.3c1.6,0,3.2,0.4,4.6,1.3l393.5,227.2c2.9,1.7,4.7,4.7,4.7,8.1
		c0,3.4-1.7,6.4-4.7,8.1L54.7,489.7C53.2,490.6,51.6,491,50,491z"/>
	<path d="M50,18.7c1.5,0,2.9,0.4,4.3,1.2L447.8,247c2.7,1.6,4.3,4.3,4.3,7.5c0,3.1-1.6,5.9-4.3,7.5L54.3,489.1
		c-1.3,0.8-2.8,1.2-4.3,1.2c-4.1,0-8.6-3.3-8.6-8.6V27.3C41.4,22,45.9,18.7,50,18.7 M50,17.3c-5.2,0-10,4.2-10,10v454.4
		c0,5.8,4.8,10,10,10c1.7,0,3.4-0.4,5-1.4l393.5-227.2c6.7-3.8,6.7-13.5,0-17.3L55,18.7C53.4,17.7,51.7,17.3,50,17.3L50,17.3z"/>
</g>
<g>
	<path class="st0" d="M443.9,235.8L50.4,8.7c-6.7-3.8-15,1-15,8.7v454.4c0,7.7,8.3,12.5,15,8.7l393.5-227.2
		C450.5,249.3,450.5,239.7,443.9,235.8z"/>
</g>
</svg>
