<?xml version="1.0" encoding="utf-8"?>
<!-- Generator: Adobe Illustrator 25.0.1, SVG Export Plug-In . SVG Version: 6.00 Build 0)  -->
<svg version="1.1" xmlns="http://www.w3.org/2000/svg" xmlns:xlink="http://www.w3.org/1999/xlink" x="0px" y="0px"
	 viewBox="0 0 248.5 235.7" style="enable-background:new 0 0 248.5 235.7;" xml:space="preserve">
<style type="text/css">
	.st0{fill:url(#SVGID_1_);}
	.st1{fill:#E6007E;stroke:#C6C6C6;stroke-width:3.973;stroke-miterlimit:10;}
	.st2{display:none;}
	.st3{display:inline;fill:url(#SVGID_2_);}
	.st4{display:inline;fill:#E6007E;stroke:#B2B2B2;stroke-width:3.0874;stroke-miterlimit:10;}
	.st5{display:inline;fill:#E6007E;stroke:#B2B2B2;stroke-width:3;stroke-miterlimit:10;}
	.st6{display:inline;}
	.st7{fill:#878787;}
	.st8{display:inline;fill:#E6007E;stroke:#9D9D9C;stroke-width:3;stroke-miterlimit:10;}
	.st9{display:inline;fill:url(#SVGID_3_);}
	.st10{display:inline;fill:#E6007E;stroke:#B2B2B2;stroke-width:3.6705;stroke-miterlimit:10;}
	.st11{display:inline;fill:url(#SVGID_4_);}
	.st12{fill:#E6007E;stroke:#C6C6C6;stroke-width:3.1657;stroke-miterlimit:10;}
	.st13{fill:none;stroke:#C6C6C6;stroke-width:3.1657;stroke-miterlimit:10;}
	.st14{fill:#E6007E;stroke:#C6C6C6;stroke-width:4.3545;stroke-miterlimit:10;}
	.st15{fill:none;stroke:#C6C6C6;stroke-width:4.3545;stroke-miterlimit:10;}
</style>
<g id="Layer_1">
</g>
<g id="Scissor">
	<linearGradient id="SVGID_1_" gradientUnits="userSpaceOnUse" x1="3" y1="118.4862" x2="243.989" y2="118.4862">
		<stop  offset="0" style="stop-color:#4D4D4D"/>
		<stop  offset="0.5155" style="stop-color:#FFFFFF"/>
		<stop  offset="1" style="stop-color:#4D4D4D"/>
	</linearGradient>
	<ellipse class="st0" cx="123.5" cy="118.5" rx="120.5" ry="116.2"/>
	<path class="st1" d="M206.9,47.6c0.8,29.2-60.4,61.4-81.2,79.8l-10.7-13C145.9,92.9,176.7,70,206.9,47.6z"/>
	<path class="st1" d="M149.1,14.4c-3.3,2.1-7.6,5.3-11.7,10.1c-6.4,7.5-9.2,15.3-10.5,20c-3.4,11.5-6.8,22.9-10.2,34.4
		c-4.4,15.3-8.8,30.6-13.2,45.9l19.8,3.7l7.9-33.1c5.2-23.2,10.4-46.4,15.6-69.7C147.5,21.9,148.3,18.2,149.1,14.4z"/>
	<path class="st1" d="M132.9,190.2c-1.3-3-2.9-5-3.8-6.2c-2.3-2.9-3.6-3.4-5.6-5.6c-1.5-1.7-3.6-4.3-5.2-8.5c-0.9-2.7-1.9-6.9-2-12
		c0-5.2,1-9.1,2.4-14.5c0.8-3.3,2.2-7.7,4.3-12.9c-6.7-1.4-13.4-2.9-20.2-4.3c-1.5,1.2-3.8,2.9-6.7,4.8c-4,2.8-6.1,4.3-8,5.1
		c-4.9,2.2-9.4,2.3-10.9,2.3c-5.8-0.1-10.1-2.2-12.3-3.4c-2.4-1.7-7-4.3-13.4-5c-3-0.3-5.6-0.1-7.6,0.3c-2.1,0.2-4.9,0.8-8.1,2.1
		c-4.1,1.7-7,4.1-8.7,5.8c-1.4,1.8-3.3,4.6-4.6,8.6c-1.5,4.6-1.4,8.3-1.3,10.5c0.1,3.9,0.3,8.3,3.2,12.8c0.9,1.4,3.5,5.2,8.4,7.6
		c4.9,2.4,9.4,2,14.1,1.6c5.1-0.5,8.9-1.8,12-2.9c4.9-1.8,8.8-3.8,11.5-5.5c8.3-5.8,16.7-11.5,25.1-17.3L86.6,186
		c-0.8,3.2-1.5,7.6-1.3,12.9c0.2,3.7,0.9,6.9,1.6,9.5c1.1,3.9,3.6,6,4.1,6.6c0.5,0.5,2.3,2.4,5.2,4c2.2,1.2,4.1,1.7,6.1,2.2
		c1.1,0.3,3,0.8,5.5,1c1.5,0.1,3.9,0.3,6.8-0.2c1.8-0.3,4.5-1,7.5-2.7c1.7-0.9,4.2-2.5,6.5-5.1c2.3-2.6,3.4-5,3.9-6.3
		c0.8-1.8,2-4.5,2.1-8.3C135,195.2,133.6,191.9,132.9,190.2z M46.3,167.8c-6.7,0-12.1-5.4-12.1-12.1c0-6.7,5.4-12.1,12.1-12.1
		c6.7,0,12.1,5.4,12.1,12.1C58.4,162.4,53,167.8,46.3,167.8z M110.3,211.6c-6.7,0-12.1-5.4-12.1-12.1c0-6.7,5.4-12.1,12.1-12.1
		c6.7,0,12.1,5.4,12.1,12.1C122.3,206.2,116.9,211.6,110.3,211.6z"/>
</g>
<g id="Truck" class="st2">
	<linearGradient id="SVGID_2_" gradientUnits="userSpaceOnUse" x1="-290.6179" y1="-213.5529" x2="-47.3766" y2="-213.5529">
		<stop  offset="0" style="stop-color:#4D4D4D"/>
		<stop  offset="0.5155" style="stop-color:#FFFFFF"/>
		<stop  offset="1" style="stop-color:#4D4D4D"/>
	</linearGradient>
	<ellipse class="st3" cx="-169" cy="-213.6" rx="121.6" ry="116.2"/>
	<polygon class="st4" points="-136.1,-160.7 -256.2,-160.7 -256.2,-251.7 -142.3,-254.1 	"/>
	<polygon class="st5" points="-78,-160.7 -136.5,-160.7 -138.9,-203.8 -80.3,-203.8 	"/>
	<path class="st5" d="M-205.6-265.4c0,18.5-14.2,33.5-31.7,33.5s-31.7-13.2-31.7-31.7c0-18.5,14.2-33.5,31.7-33.5
		S-205.6-283.9-205.6-265.4z"/>
	<g class="st6">
		<g>
			<path class="st7" d="M-239.3-282c0,5.8,0,11.6,0.1,17.4c0,1.3,1.1,2.6,2.5,2.5c4.1-0.2,8.2-0.3,12.2-0.5c1.3-0.1,2.5-1.1,2.5-2.5
				c0-1.3-1.1-2.6-2.5-2.5c-4.1,0.2-8.2,0.3-12.2,0.5c0.8,0.8,1.7,1.7,2.5,2.5c0-5.8,0-11.6-0.1-17.4c0-1.4-1.1-2.5-2.5-2.5
				C-238.2-284.5-239.3-283.4-239.3-282L-239.3-282z"/>
		</g>
	</g>
	<circle class="st8" cx="-231.4" cy="-147.9" r="15.1"/>
	<path class="st8" d="M-177.6-147.9c0,2.9-0.8,5.6-2.2,7.9c-2.7,4.3-7.4,7.2-12.9,7.2c-4.6,0-8.7-2-11.5-5.3
		c-2.3-2.6-3.6-6.1-3.6-9.8c0-8.3,6.8-15.1,15.1-15.1C-184.4-163-177.6-156.3-177.6-147.9z"/>
	<circle class="st8" cx="-97.6" cy="-147.2" r="15.1"/>
</g>
<g id="Coin" class="st2">
	<linearGradient id="SVGID_3_" gradientUnits="userSpaceOnUse" x1="3.8126" y1="-213.5529" x2="245.5381" y2="-213.5529">
		<stop  offset="0" style="stop-color:#4D4D4D"/>
		<stop  offset="0.5155" style="stop-color:#FFFFFF"/>
		<stop  offset="1" style="stop-color:#4D4D4D"/>
	</linearGradient>
	<ellipse class="st9" cx="124.7" cy="-213.6" rx="120.9" ry="116.6"/>
	<ellipse class="st10" cx="124.6" cy="-212.5" rx="88.4" ry="85.3"/>
	
		<text transform="matrix(1 0 0 1 41.188 -193.7372)" style="display:inline;fill:#C6C6C6; font-family:'Goldman-Bold'; font-size:59.6459px;">0 KR</text>
</g>
<g id="Phone_x2F_Card" class="st2">
	<linearGradient id="SVGID_4_" gradientUnits="userSpaceOnUse" x1="317.1319" y1="-212.4503" x2="556.9341" y2="-212.4503">
		<stop  offset="0" style="stop-color:#4D4D4D"/>
		<stop  offset="0.5155" style="stop-color:#FFFFFF"/>
		<stop  offset="1" style="stop-color:#4D4D4D"/>
	</linearGradient>
	<ellipse class="st11" cx="437" cy="-212.5" rx="119.9" ry="115.7"/>
	<g id="Phone" class="st6">
		<rect x="371.9" y="-300.3" class="st12" width="101" height="175.7"/>
		<circle class="st13" cx="422.3" cy="-134" r="5.7"/>
		
			<text transform="matrix(1 0 0 1 370.6822 -209.9054)" style="fill:#C6C6C6; font-family:'Goldman-Regular'; font-size:61.9023px;">KR</text>
		<line class="st13" x1="371.9" y1="-144.6" x2="472.8" y2="-144.6"/>
		<line class="st13" x1="371.9" y1="-284.6" x2="472.8" y2="-284.6"/>
	</g>
	<g id="Card" class="st6">
		<rect x="420.7" y="-202.4" class="st14" width="96.9" height="57.1"/>
		<line class="st15" x1="420.5" y1="-187.2" x2="516.8" y2="-187.2"/>
		<line class="st15" x1="465.5" y1="-172.1" x2="472.3" y2="-172.1"/>
		<line class="st15" x1="438.7" y1="-172.1" x2="445.5" y2="-172.1"/>
		<line class="st15" x1="424.8" y1="-172.1" x2="431.5" y2="-172.1"/>
		<line class="st15" x1="452.3" y1="-172.1" x2="459.1" y2="-172.1"/>
	</g>
</g>
</svg>
