<?xml version="1.0" encoding="utf-8"?>
<!-- Generator: Adobe Illustrator 25.0.1, SVG Export Plug-In . SVG Version: 6.00 Build 0)  -->
<svg version="1.1" xmlns="http://www.w3.org/2000/svg" xmlns:xlink="http://www.w3.org/1999/xlink" x="0px" y="0px"
	 viewBox="0 0 248.5 235.7" style="enable-background:new 0 0 248.5 235.7;" xml:space="preserve">
<style type="text/css">
	.st0{stroke:#000000;stroke-width:4;stroke-miterlimit:10;}
	.st1{fill:#E5007E;stroke:#B1B1B1;stroke-width:4;stroke-miterlimit:10;}
	.st2{display:none;}
	.st3{display:inline;}
	.st4{fill:#B1B1B1;}
	.st5{stroke:#000000;stroke-width:4.0696;stroke-miterlimit:10;}
	.st6{fill:#E5007E;stroke:#B1B1B1;stroke-width:4.0696;stroke-miterlimit:10;}
	.st7{stroke:#000000;stroke-width:4.7499;stroke-miterlimit:10;}
	.st8{fill:none;stroke:#000000;stroke-width:4.7499;stroke-miterlimit:10;}
	.st9{fill:#E5007E;stroke:#C6C6C5;stroke-width:4.7499;stroke-miterlimit:10;}
	.st10{fill:none;stroke:#C6C6C5;stroke-width:4.7499;stroke-miterlimit:10;}
</style>
<g id="Layer_1">
</g>
<g id="Scissor">
	<g>
		<path class="st0" d="M241.6,66.8c-7.2,31.4-81.5,48.7-108.9,62.6l-7.8-16.8C164,98.2,203.2,82.3,241.6,66.8z"/>
		<path class="st0" d="M189.2,15.3c-4.1,1.3-9.6,3.6-15.2,7.5c-9,6.3-14.1,13.8-16.8,18.4c-6.8,11.3-13.6,22.6-20.4,33.9
			c-9,15.1-17.9,30.2-26.9,45.3l20.1,9.4l17.6-33.1c12-23.3,24-46.7,36-70C185.4,22.9,187.3,19.1,189.2,15.3z"/>
		<path class="st0" d="M122.7,192.2c-1.3-3.8-3.2-6.6-4.7-8.4c-1.5-2.1-4-5.8-4.9-11.1c-0.9-5.2,0.2-9.3,1.2-13.3
			c1.4-5.6,3.5-9.4,6.6-14.9c1.8-3.3,4.5-7.7,8.1-12.6c-6.8-3.4-13.5-6.8-20.3-10.2c-2,0.8-4.9,2-8.5,3.3c-7.3,2.7-8.5,3.1-9.9,3.2
			c-4.5,0.5-8.1-0.8-11.4-2c-4.5-1.7-6.6-3.4-12.4-7.1c-5.3-3.4-9.7-6.2-12.9-7.6c-7.5-3.3-21.7-5.1-31.9,4
			C12.9,123.1,10,136,14,146.8c5.5,14.7,20.9,18.1,22.7,18.5c4.1,0.8,8.6,0.8,23.2-3.7c8.4-2.6,19.9-6.6,33.4-12.7
			c-6.6,9.8-13.1,19.6-19.7,29.3c-0.6,0.7-11.9,14.4-6.3,30.9c0.5,1.5,5.3,15,19.4,19.4c10.9,3.4,24.2,0.2,31.7-9.6
			C124.6,210.8,125.5,200.3,122.7,192.2z M37.1,154c-9.3-2.4-14.8-11.9-12.4-21.1c2.4-9.3,11.9-14.8,21.1-12.4
			c9.3,2.4,14.8,11.9,12.4,21.2C55.9,150.8,46.4,156.4,37.1,154z M91,217.9c-9.3-2.4-14.8-11.9-12.4-21.1
			c2.4-9.3,11.9-14.8,21.2-12.4c9.3,2.4,14.8,11.9,12.4,21.2C109.8,214.7,100.3,220.3,91,217.9z"/>
	</g>
	<g>
		<g>
			<path class="st1" d="M236.9,62.1c-7.2,31.4-81.5,48.7-108.9,62.6l-7.8-16.8C159.3,93.6,198.5,77.6,236.9,62.1z"/>
			<path class="st1" d="M184.5,10.7c-4.1,1.3-9.6,3.6-15.2,7.5c-9,6.3-14.1,13.8-16.8,18.4c-6.8,11.3-13.6,22.6-20.4,33.9
				c-9,15.1-17.9,30.2-26.9,45.3l20.1,9.4L142.9,92c12-23.3,24-46.7,36-70C180.7,18.2,182.6,14.4,184.5,10.7z"/>
			<path class="st1" d="M118,187.5c-1.3-3.8-3.2-6.6-4.7-8.4c-1.5-2.1-4-5.8-4.9-11.1c-0.9-5.2,0.2-9.3,1.2-13.3
				c1.4-5.6,3.5-9.4,6.6-14.9c1.8-3.3,4.5-7.7,8.1-12.6c-6.8-3.4-13.5-6.8-20.3-10.2c-2,0.8-4.9,2-8.5,3.3c-7.3,2.7-8.5,3.1-9.9,3.2
				c-4.5,0.5-8.1-0.8-11.4-2c-4.5-1.7-6.6-3.4-12.4-7.1c-5.3-3.4-9.7-6.2-12.9-7.6c-7.5-3.3-21.7-5.1-31.9,4
				c-8.7,7.7-11.7,20.6-7.6,31.4c5.5,14.7,20.9,18.1,22.7,18.5c4.1,0.8,8.6,0.8,23.2-3.7c8.4-2.6,19.9-6.6,33.4-12.7
				c-6.6,9.8-13.1,19.6-19.7,29.3c-0.6,0.7-11.9,14.4-6.3,30.9c0.5,1.5,5.3,15,19.4,19.4c10.9,3.4,24.2,0.2,31.7-9.6
				C119.9,206.1,120.8,195.7,118,187.5z M32.4,149.3c-9.3-2.4-14.8-11.9-12.4-21.1c2.4-9.3,11.9-14.8,21.1-12.4
				c9.3,2.4,14.8,11.9,12.4,21.2C51.2,146.1,41.7,151.7,32.4,149.3z M86.4,213.2c-9.3-2.4-14.8-11.9-12.4-21.1
				c2.4-9.3,11.9-14.8,21.2-12.4c9.3,2.4,14.8,11.9,12.4,21.2C105.1,210,95.6,215.6,86.4,213.2z"/>
		</g>
	</g>
</g>
<g id="Truck" class="st2">
	<g class="st3">
		<polygon class="st0" points="-153.1,-149 -299.4,-149 -299.4,-259.9 -160.6,-262.8 		"/>
		<polygon class="st0" points="-82.3,-149 -153.6,-149 -156.5,-201.6 -85.1,-201.6 		"/>
		<path class="st0" d="M-237.7-276.6c0,22.5-17.3,40.8-38.6,40.8s-38.6-16.1-38.6-38.7s17.3-40.8,38.6-40.8
			S-237.7-299.1-237.7-276.6z"/>
		<path d="M-279.3-303.9c0,9.5,0,18.9,0.1,28.4c0,1.6,1.4,3.1,3,3c6.8-0.3,13.7-0.3,20.5-0.6c1.6-0.1,3-1.4,3-3c0-1.6-1.4-3.1-3-3
			c-6.8,0.3-13.7,0.3-20.5,0.6c1,1,2,2,3,3c0-9.5,0-18.9-0.1-28.4C-273.3-307.8-279.4-307.8-279.3-303.9L-279.3-303.9z"/>
		<circle class="st0" cx="-269.1" cy="-133.5" r="18.4"/>
		<path class="st0" d="M-203.7-133.5c0,3.5-1,6.8-2.7,9.6c-3.2,5.3-9,8.8-15.7,8.8c-5.6,0-10.6-2.5-14-6.4c-2.8-3.2-4.4-7.4-4.4-12
			c0-10.2,8.2-18.4,18.4-18.4C-211.9-151.9-203.7-143.7-203.7-133.5z"/>
		<circle class="st0" cx="-106.2" cy="-132.6" r="18.4"/>
	</g>
	<g class="st3">
		<g>
			<polygon class="st1" points="-158.2,-154.2 -304.6,-154.2 -304.6,-265.1 -165.8,-267.9 			"/>
			<polygon class="st1" points="-87.5,-154.2 -158.8,-154.2 -161.6,-206.8 -90.3,-206.8 			"/>
			<path class="st1" d="M-242.9-281.7c0,22.5-17.3,40.8-38.6,40.8c-21.3,0-38.6-16.1-38.6-38.7s17.3-40.8,38.6-40.8
				C-260.2-320.4-242.9-304.3-242.9-281.7z"/>
			<g>
				<g>
					<path class="st4" d="M-284.5-309.1c0,9.5,0,18.9,0.1,28.4c0,1.6,1.4,3.1,3,3c6.8-0.3,13.7-0.3,20.5-0.6c1.6-0.1,3-1.4,3-3
						c0-1.6-1.4-3.1-3-3c-6.8,0.3-13.7,0.3-20.5,0.6c1,1,2,2,3,3c0-9.5,0-18.9-0.1-28.4C-278.5-313-284.5-313-284.5-309.1
						L-284.5-309.1z"/>
				</g>
			</g>
			<circle class="st1" cx="-274.3" cy="-138.7" r="18.4"/>
			<path class="st1" d="M-208.8-138.7c0,3.5-1,6.8-2.7,9.6c-3.2,5.3-9,8.8-15.7,8.8c-5.6,0-10.6-2.5-14-6.4c-2.8-3.2-4.4-7.4-4.4-12
				c0-10.2,8.2-18.4,18.4-18.4C-217.1-157.1-208.8-148.8-208.8-138.7z"/>
			<circle class="st1" cx="-111.4" cy="-137.8" r="18.4"/>
		</g>
	</g>
</g>
<g id="Coin" class="st2">
	<g class="st3">
		<ellipse class="st5" cx="127.7" cy="-209" rx="90" ry="86.8"/>
		<text transform="matrix(1 0 0 1 42.8569 -189.9702)" style="font-family:'Goldman-Bold'; font-size:60.6834px;">0 KR</text>
	</g>
	<g class="st3">
		<g>
			<ellipse class="st6" cx="124.2" cy="-212.5" rx="90" ry="86.8"/>
			<text transform="matrix(1 0 0 1 39.4155 -193.4116)" style="fill:#C6C6C5; font-family:'Goldman-Bold'; font-size:60.6834px;">0 KR</text>
		</g>
	</g>
</g>
<g id="Phone_x2F_Card" class="st2">
	<g id="Phone" class="st3">
		<g>
			<rect x="311.6" y="-308.9" class="st7" width="119.9" height="208.6"/>
			<circle class="st8" cx="371.6" cy="-111.4" r="6.8"/>
			<text transform="matrix(1 0 0 1 310.2274 -201.6018)" style="font-family:'Goldman-Regular'; font-size:73.5076px;">KR</text>
			<line class="st8" x1="311.6" y1="-124" x2="431.5" y2="-124"/>
			<line class="st8" x1="311.6" y1="-290.3" x2="431.5" y2="-290.3"/>
		</g>
		<g>
			<g>
				<rect x="307.4" y="-313.2" class="st9" width="119.9" height="208.6"/>
				<circle class="st10" cx="367.3" cy="-115.7" r="6.8"/>
				
					<text transform="matrix(1 0 0 1 305.9754 -205.8538)" style="fill:#C6C6C5; font-family:'Goldman-Regular'; font-size:73.5076px;">KR</text>
				<line class="st10" x1="307.4" y1="-128.3" x2="427.3" y2="-128.3"/>
				<line class="st10" x1="307.4" y1="-294.5" x2="427.3" y2="-294.5"/>
			</g>
		</g>
	</g>
	<g id="Card" class="st3">
		<g>
			<rect x="369.7" y="-192.7" class="st7" width="115.1" height="67.8"/>
			<line class="st8" x1="369.4" y1="-174.6" x2="483.7" y2="-174.6"/>
			<line class="st8" x1="422.9" y1="-156.7" x2="430.9" y2="-156.7"/>
			<line class="st8" x1="391" y1="-156.7" x2="399" y2="-156.7"/>
			<line class="st8" x1="374.5" y1="-156.7" x2="382.5" y2="-156.7"/>
			<line class="st8" x1="407.1" y1="-156.7" x2="415.2" y2="-156.7"/>
		</g>
		<g>
			<g>
				<rect x="365.4" y="-196.9" class="st9" width="115.1" height="67.8"/>
				<line class="st10" x1="365.2" y1="-178.9" x2="479.5" y2="-178.9"/>
				<line class="st10" x1="418.6" y1="-160.9" x2="426.6" y2="-160.9"/>
				<line class="st10" x1="386.7" y1="-160.9" x2="394.8" y2="-160.9"/>
				<line class="st10" x1="370.2" y1="-160.9" x2="378.2" y2="-160.9"/>
				<line class="st10" x1="402.9" y1="-160.9" x2="410.9" y2="-160.9"/>
			</g>
		</g>
	</g>
</g>
</svg>
