<?xml version="1.0" encoding="utf-8"?>
<!-- Generator: Adobe Illustrator 25.0.1, SVG Export Plug-In . SVG Version: 6.00 Build 0)  -->
<svg version="1.1" xmlns="http://www.w3.org/2000/svg" xmlns:xlink="http://www.w3.org/1999/xlink" x="0px" y="0px"
	 viewBox="0 0 248.5 235.7" style="enable-background:new 0 0 248.5 235.7;" xml:space="preserve">
<style type="text/css">
	.st0{display:none;}
	.st1{display:inline;}
	.st2{fill:none;stroke:#000000;stroke-width:4;stroke-miterlimit:10;}
	.st3{fill:none;stroke:#B0B0B0;stroke-width:4;stroke-miterlimit:10;}
	.st4{fill:#B0B0B0;}
	.st5{fill:none;stroke:#000000;stroke-width:4.0696;stroke-miterlimit:10;}
	.st6{fill:none;stroke:#B0B0B0;stroke-width:4.0696;stroke-miterlimit:10;}
	.st7{fill:#C5C5C4;}
	.st8{fill:none;stroke:#000000;stroke-width:4.7499;stroke-miterlimit:10;}
	.st9{fill:none;stroke:#C5C5C4;stroke-width:4.7499;stroke-miterlimit:10;}
</style>
<g id="Layer_1">
</g>
<g id="Lag_6" class="st0">
	
		<image style="display:inline;overflow:visible;" width="1920" height="1080" xlink:href="images/background.jpg"  transform="matrix(1 0 0 1 -838.2557 -460.8975)">
	</image>
</g>
<g id="Scissor" class="st0">
	<g class="st1">
		<path class="st2" d="M832.5-257.3c-7.2,31.4-81.5,48.7-108.8,62.7l-1.2-2.6l11.1-20.8C766.7-230.6,799.9-244.1,832.5-257.3z"/>
		<path class="st2" d="M721.1-194.2l-20.4-9.4c9-15.1,17.9-30.2,26.9-45.3c6.8-11.3,13.6-22.6,20.4-33.9c2.7-4.6,7.8-12.1,16.8-18.4
			c5.7-4,11.1-6.2,15.2-7.5c-1.9,3.8-3.5,7.6-5.4,11.4L721.1-194.2z"/>
		<path class="st2" d="M708.8-140.3c-1.5-2-4-5.8-4.9-11.1c-0.9-5.2,0.2-9.3,1.2-13.3c1.4-5.6,3.5-9.4,6.6-14.9
			c1.8-3.3,4.5-7.7,8.1-12.6c-6.8-3.4-13.5-6.8-20.3-10.2c-2,0.8-4.9,2-8.5,3.3c-7.3,2.7-8.5,3.1-9.9,3.2c-4.5,0.5-8.1-0.8-11.4-2
			c-4.5-1.7-6.6-3.4-12.4-7.1c-5.3-3.4-9.7-6.2-12.9-7.6c-7.5-3.3-21.7-5.1-31.9,4c-8.7,7.7-11.7,20.5-7.6,31.4
			c5.5,14.7,21,18.1,22.7,18.5c4.1,0.8,8.6,0.8,23.2-3.7c8.4-2.6,19.9-6.6,33.4-12.7c-6.6,9.8-13.1,19.6-19.7,29.3
			c-0.6,0.7-11.9,14.3-6.3,30.8c0.5,1.5,5.3,15,19.4,19.4c10.9,3.4,24.2,0.2,31.7-9.6c6.2-8,7-18.5,4.2-26.6
			C712.2-135.6,710.3-138.4,708.8-140.3z M649.2-182.5c-2.4,9.3-11.9,14.8-21.1,12.4c-9.3-2.4-14.8-11.9-12.4-21.1
			c2.4-9.3,11.9-14.8,21.1-12.4C646-201.2,651.6-191.7,649.2-182.5z M703.1-118.6c-2.4,9.3-11.9,14.8-21.1,12.4
			c-9.3-2.4-14.8-11.9-12.4-21.1c2.4-9.3,11.9-14.8,21.1-12.4C699.9-137.3,705.5-127.8,703.1-118.6z"/>
	</g>
	<g class="st1">
		<g>
			<path class="st3" d="M827.8-261.9c-7.2,31.4-81.5,48.7-108.8,62.7l-1.2-2.6l11.1-20.8C762-235.3,795.2-248.8,827.8-261.9z"/>
			<path class="st3" d="M716.4-198.9l-20.4-9.4c9-15.1,17.9-30.2,26.9-45.3c6.8-11.3,13.6-22.6,20.4-33.9
				c2.7-4.6,7.8-12.1,16.8-18.4c5.7-4,11.1-6.2,15.2-7.5c-1.9,3.8-3.5,7.6-5.4,11.4L716.4-198.9z"/>
			<path class="st3" d="M704.1-145c-1.5-2-4-5.8-4.9-11.1c-0.9-5.2,0.2-9.3,1.2-13.3c1.4-5.6,3.5-9.4,6.6-14.9
				c1.8-3.3,4.5-7.7,8.1-12.6c-6.8-3.4-13.5-6.8-20.3-10.2c-2,0.8-4.9,2-8.5,3.3c-7.3,2.7-8.5,3.1-9.9,3.2c-4.5,0.5-8.1-0.8-11.4-2
				c-4.5-1.7-6.6-3.4-12.4-7.1c-5.3-3.4-9.7-6.2-12.9-7.6c-7.5-3.3-21.7-5.1-31.9,4c-8.7,7.7-11.7,20.5-7.6,31.4
				c5.5,14.7,21,18.1,22.7,18.5c4.1,0.8,8.6,0.8,23.2-3.7c8.4-2.6,19.9-6.6,33.4-12.7c-6.6,9.8-13.1,19.6-19.7,29.3
				c-0.6,0.7-11.9,14.3-6.3,30.8c0.5,1.5,5.3,15,19.4,19.4c10.9,3.4,24.2,0.2,31.7-9.6c6.2-8,7-18.5,4.2-26.6
				C707.5-140.3,705.6-143.1,704.1-145z M644.5-187.2c-2.4,9.3-11.9,14.8-21.1,12.4c-9.3-2.4-14.8-11.9-12.4-21.1
				c2.4-9.3,11.9-14.8,21.1-12.4C641.3-205.9,646.9-196.4,644.5-187.2z M698.4-123.3c-2.4,9.3-11.9,14.8-21.1,12.4
				c-9.3-2.4-14.8-11.9-12.4-21.1c2.4-9.3,11.9-14.8,21.1-12.4C695.3-142,700.8-132.5,698.4-123.3z"/>
		</g>
	</g>
</g>
<g id="Truck">
	<g>
		<polygon class="st2" points="171.9,187.7 25.6,187.7 25.6,76.9 164.3,74 		"/>
		<polygon class="st2" points="242.7,187.7 171.4,187.7 168.5,135.2 239.8,135.2 		"/>
		<path class="st2" d="M87.2,60.2C87.2,82.7,70,101,48.7,101S10.1,84.9,10.1,62.3s17.3-40.8,38.6-40.8S87.2,37.7,87.2,60.2z"/>
		<path d="M45.6,32.9c0,9.5,0,18.9,0.1,28.4c0,1.6,1.4,3.1,3,3c6.8-0.3,13.7-0.3,20.5-0.6c1.6-0.1,3-1.4,3-3c0-1.6-1.4-3.1-3-3
			c-6.8,0.3-13.7,0.3-20.5,0.6c1,1,2,2,3,3c0-9.5,0-18.9-0.1-28.4C51.7,29,45.6,28.9,45.6,32.9L45.6,32.9z"/>
		<circle class="st2" cx="55.9" cy="203.3" r="18.4"/>
		<path class="st2" d="M121.3,203.3c0,3.5-1,6.8-2.7,9.6c-3.2,5.3-9,8.8-15.7,8.8c-5.6,0-10.6-2.5-14-6.4c-2.8-3.2-4.4-7.4-4.4-12
			c0-10.2,8.2-18.4,18.4-18.4C113.1,184.9,121.3,193.1,121.3,203.3z"/>
		<circle class="st2" cx="218.8" cy="204.1" r="18.4"/>
	</g>
	<g>
		<g>
			<polygon class="st3" points="166.7,182.5 20.4,182.5 20.4,71.7 159.2,68.8 			"/>
			<polygon class="st3" points="237.5,182.5 166.2,182.5 163.3,130 234.7,130 			"/>
			<path class="st3" d="M82.1,55c0,22.5-17.3,40.8-38.6,40.8S4.9,79.7,4.9,57.2s17.3-40.8,38.6-40.8S82.1,32.5,82.1,55z"/>
			<g>
				<g>
					<path class="st4" d="M40.5,27.7c0,9.5,0,18.9,0.1,28.4c0,1.6,1.4,3.1,3,3c6.8-0.3,13.7-0.3,20.5-0.6c1.6-0.1,3-1.4,3-3
						c0-1.6-1.4-3.1-3-3c-6.8,0.3-13.7,0.3-20.5,0.6c1,1,2,2,3,3c0-9.5,0-18.9-0.1-28.4C46.5,23.8,40.4,23.8,40.5,27.7L40.5,27.7z"
						/>
				</g>
			</g>
			<circle class="st3" cx="50.7" cy="198.1" r="18.4"/>
			<path class="st3" d="M116.1,198.1c0,3.5-1,6.8-2.7,9.6c-3.2,5.3-9,8.8-15.7,8.8c-5.6,0-10.6-2.5-14-6.4c-2.8-3.2-4.4-7.4-4.4-12
				c0-10.2,8.2-18.4,18.4-18.4C107.9,179.7,116.1,187.9,116.1,198.1z"/>
			<circle class="st3" cx="213.6" cy="199" r="18.4"/>
		</g>
	</g>
</g>
<g id="Coin" class="st0">
	<g class="st1">
		<ellipse class="st5" cx="132.7" cy="-209.8" rx="90" ry="86.8"/>
		<path d="M66.2-190.8c-4.9,0-8.3-1-10.4-2.9c-2.1-1.9-3.1-5-3.1-9.2v-11.6c0-4.2,1-7.3,3.1-9.2c2.1-1.9,5.5-2.9,10.4-2.9h11.6
			c4.9,0,8.4,1,10.4,2.9c2,1.9,3.1,5,3.1,9.2v11.6c0,4.2-1,7.3-3.1,9.2c-2.1,1.9-5.5,2.9-10.4,2.9H66.2z M68.6-199h6.9
			c1.5,0,2.6-0.4,3.2-1.2c0.6-0.8,0.9-1.8,0.9-3.2V-214c0-1.2-0.3-2.2-1-3c-0.6-0.8-1.7-1.2-3.2-1.2h-6.9c-1.5,0-2.5,0.4-3.2,1.2
			c-0.7,0.8-1,1.8-1,3.1v10.6c0,1.4,0.3,2.4,1,3.2C66-199.4,67.1-199,68.6-199z"/>
		<path d="M153.6-190.2c-2,0-3.9-0.4-5.8-1.2c-1.9-0.8-3.5-1.9-4.9-3.3c-0.7-0.7-1.5-1.5-2.2-2.2s-1.5-1.5-2.2-2.2
			c-1.5-1.5-3.2-2.8-4.9-3.7c-1.7-0.9-3.9-1.4-6.5-1.4h-0.6v13.3H115v-30.8l-0.6-4.9h12.3v14h1.8c0.7,0,1.2-0.1,1.6-0.3
			c0.4-0.2,0.8-0.5,1.2-1c1-1.1,2.1-2.3,3.2-3.9c1.2-1.5,2.4-3.1,3.5-4.7c1.2-1.6,2.1-3,2.9-4.2h14.9l-2.5,3.6
			c-1,1.1-2.1,2.3-3.4,3.6c-1.2,1.3-2.5,2.6-3.7,3.8c-1.2,1.2-2.3,2.4-3.3,3.4c-1,1-1.8,1.8-2.4,2.4c1.3,0.5,2.3,1.1,3.3,1.8
			c0.9,0.7,1.9,1.4,3,2.3c1,0.8,1.9,1.5,2.6,2.1c0.7,0.6,1.6,1.4,2.7,2.2c2.2,1.7,4.1,2.8,5.7,3.2c1.6,0.4,2.6,0.6,3.1,0.6l-2.4,6.7
			c-0.4,0.1-1,0.3-1.9,0.4C155.8-190.2,154.8-190.2,153.6-190.2z"/>
		<path d="M205.8-190.2c-1.6,0-3.4-0.3-5.4-0.8c-2-0.5-3.9-1.7-5.9-3.7l-2.5-2.5c-1.2-1.2-2.4-2.2-3.5-3c-1.1-0.8-2.4-1.3-3.8-1.7
			c-1.4-0.4-3.2-0.6-5.3-0.6h-0.5v11.7H167v-30.8l-0.6-4.9h28.1c2.6,0,4.7,0.3,6.3,0.9c1.6,0.6,2.8,1.5,3.7,2.5
			c0.9,1,1.5,2.2,1.8,3.5c0.3,1.3,0.5,2.6,0.5,3.9v1.2c0,2.4-0.6,4.6-1.9,6.5c-1.2,1.9-3.2,3.3-5.9,4.1c1,0.6,2,1.2,2.9,1.9
			c0.9,0.6,2,1.3,3.1,2c1.3,0.8,2.6,1.3,3.7,1.7c1.2,0.3,2.1,0.6,2.9,0.6c0.8,0.1,1.2,0.1,1.3,0.1l-1.8,6.9
			c-0.5,0.1-1.2,0.3-2.2,0.4C208-190.2,206.9-190.2,205.8-190.2z M185.9-210.6c1,0,2,0,2.9-0.1c0.9,0,1.8-0.1,2.6-0.2
			c1.4-0.2,2.3-0.6,2.8-1.3c0.5-0.7,0.8-1.6,0.8-2.6v-0.7c0-0.9-0.3-1.6-0.8-2.1c-0.5-0.5-1.4-0.7-2.8-0.7h-12.6v7.3
			c1,0,2.1,0.1,3.3,0.2C183.4-210.6,184.6-210.6,185.9-210.6z"/>
	</g>
	<g class="st1">
		<g>
			<ellipse class="st6" cx="129.2" cy="-213.3" rx="90" ry="86.8"/>
			<g>
				<path class="st7" d="M62.8-194.2c-4.9,0-8.3-1-10.4-2.9c-2.1-1.9-3.1-5-3.1-9.2v-11.6c0-4.2,1-7.3,3.1-9.2
					c2.1-1.9,5.5-2.9,10.4-2.9h11.6c4.9,0,8.4,1,10.4,2.9c2,1.9,3.1,5,3.1,9.2v11.6c0,4.2-1,7.3-3.1,9.2c-2.1,1.9-5.5,2.9-10.4,2.9
					H62.8z M65.2-202.5h6.9c1.5,0,2.6-0.4,3.2-1.2c0.6-0.8,0.9-1.8,0.9-3.2v-10.6c0-1.2-0.3-2.2-1-3c-0.6-0.8-1.7-1.2-3.2-1.2h-6.9
					c-1.5,0-2.5,0.4-3.2,1.2c-0.7,0.8-1,1.8-1,3.1v10.6c0,1.4,0.3,2.4,1,3.2C62.6-202.9,63.7-202.5,65.2-202.5z"/>
				<path class="st7" d="M150.2-193.6c-2,0-3.9-0.4-5.8-1.2c-1.9-0.8-3.5-1.9-4.9-3.3c-0.7-0.7-1.5-1.5-2.2-2.2s-1.5-1.5-2.2-2.2
					c-1.5-1.5-3.2-2.8-4.9-3.7c-1.7-0.9-3.9-1.4-6.5-1.4h-0.6v13.3h-11.7v-30.8l-0.6-4.9h12.3v14h1.8c0.7,0,1.2-0.1,1.6-0.3
					c0.4-0.2,0.8-0.5,1.2-1c1-1.1,2.1-2.3,3.2-3.9c1.2-1.5,2.4-3.1,3.5-4.7c1.2-1.6,2.1-3,2.9-4.2h14.9l-2.5,3.6
					c-1,1.1-2.1,2.3-3.4,3.6c-1.2,1.3-2.5,2.6-3.7,3.8c-1.2,1.2-2.3,2.4-3.3,3.4c-1,1-1.8,1.8-2.4,2.4c1.3,0.5,2.3,1.1,3.3,1.8
					c0.9,0.7,1.9,1.4,3,2.3c1,0.8,1.9,1.5,2.6,2.1c0.7,0.6,1.6,1.4,2.7,2.2c2.2,1.7,4.1,2.8,5.7,3.2c1.6,0.4,2.6,0.6,3.1,0.6
					l-2.4,6.7c-0.4,0.1-1,0.3-1.9,0.4C152.3-193.7,151.3-193.6,150.2-193.6z"/>
				<path class="st7" d="M202.4-193.6c-1.6,0-3.4-0.3-5.4-0.8c-2-0.5-3.9-1.7-5.9-3.7l-2.5-2.5c-1.2-1.2-2.4-2.2-3.5-3
					c-1.1-0.8-2.4-1.3-3.8-1.7c-1.4-0.4-3.2-0.6-5.3-0.6h-0.5v11.7h-11.8v-30.8L163-230h28.1c2.6,0,4.7,0.3,6.3,0.9
					c1.6,0.6,2.8,1.5,3.7,2.5c0.9,1,1.5,2.2,1.8,3.5c0.3,1.3,0.5,2.6,0.5,3.9v1.2c0,2.4-0.6,4.6-1.9,6.5c-1.2,1.9-3.2,3.3-5.9,4.1
					c1,0.6,2,1.2,2.9,1.9c0.9,0.6,2,1.3,3.1,2c1.3,0.8,2.6,1.3,3.7,1.7c1.2,0.3,2.1,0.6,2.9,0.6c0.8,0.1,1.2,0.1,1.3,0.1l-1.8,6.9
					c-0.5,0.1-1.2,0.3-2.2,0.4C204.6-193.7,203.5-193.6,202.4-193.6z M182.5-214c1,0,2,0,2.9-0.1c0.9,0,1.8-0.1,2.6-0.2
					c1.4-0.2,2.3-0.6,2.8-1.3c0.5-0.7,0.8-1.6,0.8-2.6v-0.7c0-0.9-0.3-1.6-0.8-2.1c-0.5-0.5-1.4-0.7-2.8-0.7h-12.6v7.3
					c1,0,2.1,0.1,3.3,0.2C180-214,181.2-214,182.5-214z"/>
			</g>
		</g>
	</g>
</g>
<g id="Phone_x2F_Card" class="st0">
	<g id="Phone" class="st1">
		<g>
			<rect x="332.8" y="-317" class="st8" width="119.9" height="208.6"/>
			<circle class="st8" cx="392.7" cy="-119.6" r="6.8"/>
			<path d="M383.3-209c-2.3,0-4.3-0.5-6-1.4c-1.7-0.9-3.3-2.2-5-3.8c-1.8-1.9-3.9-4-6.4-6.4c-1.2-1.2-2.4-2.2-3.6-3
				c-1.2-0.8-2.6-1.4-4.1-1.8c-1.5-0.4-3.4-0.6-5.6-0.6h-3.3v16.4h-9.2v-35.6l-0.7-5.6h9.9v17.9h3.9c0.9,0,1.7-0.1,2.3-0.3
				c0.6-0.2,1.2-0.6,1.7-1.1c1.3-1.3,2.8-2.9,4.5-4.9c1.7-2,3.3-4,4.9-6.1c1.6-2.1,3-3.9,4.2-5.5h11.3l-2.9,4.2
				c-1.3,1.4-2.7,2.8-4.2,4.4c-1.5,1.6-3,3.1-4.4,4.7c-1.4,1.5-2.8,2.8-3.9,4c-1.2,1.1-2,2-2.6,2.5c1.3,0.4,2.4,1,3.5,1.6
				c1,0.7,2.3,1.6,3.9,2.9c1.2,0.9,2.3,1.9,3.4,2.9c1.1,1,2.4,2.1,3.8,3.5c1.6,1.5,3.2,2.6,4.6,3.3c1.4,0.7,2.7,1.1,3.7,1.3
				c1,0.2,1.6,0.3,1.9,0.3l-1.4,5.7c-0.1,0.1-0.6,0.3-1.3,0.5C385.6-209.1,384.6-209,383.3-209z"/>
			<path d="M440-209c-1.9,0-3.7-0.3-5.5-0.9c-1.8-0.6-3.8-2-6.1-4.3l-5-5c-2.1-2.1-4.3-3.6-6.8-4.6s-5.5-1.5-9.2-1.5h-2.2v15.6H396
				v-35.6l-0.7-5.7h31c3,0,5.3,0.4,7,1.2c1.7,0.8,3,1.8,3.8,3.1c0.8,1.3,1.3,2.6,1.6,4.1c0.2,1.4,0.4,2.8,0.4,4.1v1.3
				c0,1-0.1,2.2-0.4,3.4c-0.3,1.3-0.8,2.5-1.6,3.7c-0.8,1.2-1.9,2.2-3.4,3.1c-1.5,0.8-3.4,1.3-5.8,1.5c0.6,0.3,1.4,0.8,2.3,1.5
				c0.9,0.7,1.9,1.4,2.9,2.2c1,0.8,1.9,1.5,2.8,2.2c0.8,0.7,1.5,1.1,2,1.4c1.7,1,3.2,1.7,4.5,2c1.3,0.4,2.4,0.6,3.2,0.6
				c0.8,0,1.3,0.1,1.5,0.1l-1.4,5.7c-0.4,0.1-1.1,0.3-2.1,0.5C442.5-209.1,441.3-209,440-209z M415.7-231.7c1.8,0,3.4,0,4.8-0.1
				c1.4-0.1,2.7-0.2,3.8-0.2c2.1-0.2,3.5-0.8,4.3-1.7c0.8-0.9,1.2-2.1,1.2-3.5v-1.6c0-1.5-0.4-2.8-1.2-3.8c-0.8-1-2.2-1.5-4.3-1.5
				h-19.1v12.2c2.1,0.1,3.9,0.2,5.7,0.3C412.6-231.7,414.3-231.7,415.7-231.7z"/>
			<line class="st8" x1="332.8" y1="-132.1" x2="452.7" y2="-132.1"/>
			<line class="st8" x1="332.8" y1="-298.4" x2="452.7" y2="-298.4"/>
		</g>
		<g>
			<g>
				<rect x="328.5" y="-321.3" class="st9" width="119.9" height="208.6"/>
				<circle class="st9" cx="388.5" cy="-123.8" r="6.8"/>
				<g>
					<path class="st7" d="M379.1-213.3c-2.3,0-4.3-0.5-6-1.4c-1.7-0.9-3.3-2.2-5-3.8c-1.8-1.9-3.9-4-6.4-6.4c-1.2-1.2-2.4-2.2-3.6-3
						c-1.2-0.8-2.6-1.4-4.1-1.8c-1.5-0.4-3.4-0.6-5.6-0.6h-3.3v16.4h-9.2v-35.6l-0.7-5.6h9.9v17.9h3.9c0.9,0,1.7-0.1,2.3-0.3
						c0.6-0.2,1.2-0.6,1.7-1.1c1.3-1.3,2.8-2.9,4.5-4.9c1.7-2,3.3-4,4.9-6.1c1.6-2.1,3-3.9,4.2-5.5H378l-2.9,4.2
						c-1.3,1.4-2.7,2.8-4.2,4.4c-1.5,1.6-3,3.1-4.4,4.7c-1.4,1.5-2.8,2.8-3.9,4c-1.2,1.1-2,2-2.6,2.5c1.3,0.4,2.4,1,3.5,1.6
						c1,0.7,2.3,1.6,3.9,2.9c1.2,0.9,2.3,1.9,3.4,2.9c1.1,1,2.4,2.1,3.8,3.5c1.6,1.5,3.2,2.6,4.6,3.3c1.4,0.7,2.7,1.1,3.7,1.3
						c1,0.2,1.6,0.3,1.9,0.3l-1.4,5.7c-0.1,0.1-0.6,0.3-1.3,0.5C381.4-213.3,380.4-213.3,379.1-213.3z"/>
					<path class="st7" d="M435.8-213.3c-1.9,0-3.7-0.3-5.5-0.9c-1.8-0.6-3.8-2-6.1-4.3l-5-5c-2.1-2.1-4.3-3.6-6.8-4.6
						s-5.5-1.5-9.2-1.5H401v15.6h-9.2v-35.6l-0.7-5.7h31c3,0,5.3,0.4,7,1.2c1.7,0.8,3,1.8,3.8,3.1c0.8,1.3,1.3,2.6,1.6,4.1
						c0.2,1.4,0.4,2.8,0.4,4.1v1.3c0,1-0.1,2.2-0.4,3.4c-0.3,1.3-0.8,2.5-1.6,3.7c-0.8,1.2-1.9,2.2-3.4,3.1
						c-1.5,0.8-3.4,1.3-5.8,1.5c0.6,0.3,1.4,0.8,2.3,1.5c0.9,0.7,1.9,1.4,2.9,2.2c1,0.8,1.9,1.5,2.8,2.2c0.8,0.7,1.5,1.1,2,1.4
						c1.7,1,3.2,1.7,4.5,2c1.3,0.4,2.4,0.6,3.2,0.6c0.8,0,1.3,0.1,1.5,0.1l-1.4,5.7c-0.4,0.1-1.1,0.3-2.1,0.5
						C438.2-213.3,437.1-213.3,435.8-213.3z M411.5-235.9c1.8,0,3.4,0,4.8-0.1c1.4-0.1,2.7-0.2,3.8-0.2c2.1-0.2,3.5-0.8,4.3-1.7
						c0.8-0.9,1.2-2.1,1.2-3.5v-1.6c0-1.5-0.4-2.8-1.2-3.8c-0.8-1-2.2-1.5-4.3-1.5H401v12.2c2.1,0.1,3.9,0.2,5.7,0.3
						C408.4-236,410-235.9,411.5-235.9z"/>
				</g>
				<line class="st9" x1="328.5" y1="-136.4" x2="448.4" y2="-136.4"/>
				<line class="st9" x1="328.5" y1="-302.6" x2="448.4" y2="-302.6"/>
			</g>
		</g>
	</g>
	<g id="Card" class="st1">
		<g>
			<rect x="390.8" y="-200.8" class="st8" width="115.1" height="67.8"/>
			<line class="st8" x1="390.6" y1="-182.8" x2="504.9" y2="-182.8"/>
			<line class="st8" x1="444" y1="-164.8" x2="452.1" y2="-164.8"/>
			<line class="st8" x1="412.2" y1="-164.8" x2="420.2" y2="-164.8"/>
			<line class="st8" x1="395.6" y1="-164.8" x2="403.7" y2="-164.8"/>
			<line class="st8" x1="428.3" y1="-164.8" x2="436.3" y2="-164.8"/>
		</g>
		<g>
			<g>
				<rect x="386.6" y="-205" class="st9" width="115.1" height="67.8"/>
				<line class="st9" x1="386.3" y1="-187" x2="500.7" y2="-187"/>
				<line class="st9" x1="439.8" y1="-169" x2="447.8" y2="-169"/>
				<line class="st9" x1="407.9" y1="-169" x2="415.9" y2="-169"/>
				<line class="st9" x1="391.4" y1="-169" x2="399.4" y2="-169"/>
				<line class="st9" x1="424" y1="-169" x2="432.1" y2="-169"/>
			</g>
		</g>
	</g>
</g>
</svg>
