<?xml version="1.0" encoding="utf-8"?>
<!-- Generator: Adobe Illustrator 25.0.1, SVG Export Plug-In . SVG Version: 6.00 Build 0)  -->
<svg version="1.1" xmlns="http://www.w3.org/2000/svg" xmlns:xlink="http://www.w3.org/1999/xlink" x="0px" y="0px"
	 viewBox="0 0 248.5 235.7" style="enable-background:new 0 0 248.5 235.7;" xml:space="preserve">
<style type="text/css">
	.st0{display:none;}
	.st1{display:inline;}
	.st2{stroke:#000000;stroke-width:4;stroke-miterlimit:10;}
	.st3{fill:#E5007E;stroke:#B1B1B1;stroke-width:4;stroke-miterlimit:10;}
	.st4{fill:#B1B1B1;}
	.st5{stroke:#000000;stroke-width:4.0696;stroke-miterlimit:10;}
	.st6{fill:#E5007E;stroke:#B1B1B1;stroke-width:4.0696;stroke-miterlimit:10;}
	.st7{stroke:#000000;stroke-width:4.7499;stroke-miterlimit:10;}
	.st8{fill:none;stroke:#000000;stroke-width:4.7499;stroke-miterlimit:10;}
	.st9{fill:#E5007E;stroke:#C6C6C5;stroke-width:4.7499;stroke-miterlimit:10;}
	.st10{fill:none;stroke:#C6C6C5;stroke-width:4.7499;stroke-miterlimit:10;}
</style>
<g id="Layer_1">
</g>
<g id="Scissor" class="st0">
	<g class="st1">
		<path class="st2" d="M778-263.5c-7.2,31.4-81.5,48.7-108.9,62.6l-7.8-16.8C700.4-232.1,739.6-248,778-263.5z"/>
		<path class="st2" d="M725.6-315c-4.1,1.3-9.6,3.6-15.2,7.5c-9,6.3-14.1,13.8-16.8,18.4c-6.8,11.3-13.6,22.6-20.4,33.9
			c-9,15.1-17.9,30.2-26.9,45.3l20.1,9.4l17.6-33.1c12-23.3,24-46.7,36-70C721.9-307.4,723.7-311.2,725.6-315z"/>
		<path class="st2" d="M659.1-138.1c-1.3-3.8-3.2-6.6-4.7-8.4c-1.5-2.1-4-5.8-4.9-11.1c-0.9-5.2,0.2-9.3,1.2-13.3
			c1.4-5.6,3.5-9.4,6.6-14.9c1.8-3.3,4.5-7.7,8.1-12.6c-6.8-3.4-13.5-6.8-20.3-10.2c-2,0.8-4.9,2-8.5,3.3c-7.3,2.7-8.5,3.1-9.9,3.2
			c-4.5,0.5-8.1-0.8-11.4-2c-4.5-1.7-6.6-3.4-12.4-7.1c-5.3-3.4-9.7-6.2-12.9-7.6c-7.5-3.3-21.7-5.1-31.9,4
			c-8.7,7.7-11.7,20.6-7.6,31.4c5.5,14.7,20.9,18.1,22.7,18.5c4.1,0.8,8.6,0.8,23.2-3.7c8.4-2.6,19.9-6.6,33.4-12.7
			c-6.6,9.8-13.1,19.6-19.7,29.3c-0.6,0.7-11.9,14.4-6.3,30.9c0.5,1.5,5.3,15,19.4,19.4c10.9,3.4,24.2,0.2,31.7-9.6
			C661-119.5,661.9-130,659.1-138.1z M573.6-176.3c-9.3-2.4-14.8-11.9-12.4-21.1c2.4-9.3,11.9-14.8,21.1-12.4
			c9.3,2.4,14.8,11.9,12.4,21.2C592.3-179.5,582.8-173.9,573.6-176.3z M627.5-112.4c-9.3-2.4-14.8-11.9-12.4-21.1
			c2.4-9.3,11.9-14.8,21.2-12.4c9.3,2.4,14.8,11.9,12.4,21.2C646.2-115.6,636.8-110,627.5-112.4z"/>
	</g>
	<g class="st1">
		<g>
			<path class="st3" d="M773.4-268.2c-7.2,31.4-81.5,48.7-108.9,62.6l-7.8-16.8C695.7-236.8,734.9-252.7,773.4-268.2z"/>
			<path class="st3" d="M720.9-319.7c-4.1,1.3-9.6,3.6-15.2,7.5c-9,6.3-14.1,13.8-16.8,18.4c-6.8,11.3-13.6,22.6-20.4,33.9
				c-9,15.1-17.9,30.2-26.9,45.3l20.1,9.4l17.6-33.1c12-23.3,24-46.7,36-70C717.2-312.1,719-315.9,720.9-319.7z"/>
			<path class="st3" d="M654.4-142.8c-1.3-3.8-3.2-6.6-4.7-8.4c-1.5-2.1-4-5.8-4.9-11.1c-0.9-5.2,0.2-9.3,1.2-13.3
				c1.4-5.6,3.5-9.4,6.6-14.9c1.8-3.3,4.5-7.7,8.1-12.6c-6.8-3.4-13.5-6.8-20.3-10.2c-2,0.8-4.9,2-8.5,3.3c-7.3,2.7-8.5,3.1-9.9,3.2
				c-4.5,0.5-8.1-0.8-11.4-2c-4.5-1.7-6.6-3.4-12.4-7.1c-5.3-3.4-9.7-6.2-12.9-7.6c-7.5-3.3-21.7-5.1-31.9,4
				c-8.7,7.7-11.7,20.6-7.6,31.4c5.5,14.7,20.9,18.1,22.7,18.5c4.1,0.8,8.6,0.8,23.2-3.7c8.4-2.6,19.9-6.6,33.4-12.7
				c-6.6,9.8-13.1,19.6-19.7,29.3c-0.6,0.7-11.9,14.4-6.3,30.9c0.5,1.5,5.3,15,19.4,19.4c10.9,3.4,24.2,0.2,31.7-9.6
				C656.4-124.2,657.2-134.6,654.4-142.8z M568.9-181c-9.3-2.4-14.8-11.9-12.4-21.1c2.4-9.3,11.9-14.8,21.1-12.4
				c9.3,2.4,14.8,11.9,12.4,21.2C587.6-184.2,578.2-178.6,568.9-181z M622.8-117.1c-9.3-2.4-14.8-11.9-12.4-21.1
				c2.4-9.3,11.9-14.8,21.2-12.4c9.3,2.4,14.8,11.9,12.4,21.2C641.5-120.3,632.1-114.7,622.8-117.1z"/>
		</g>
	</g>
</g>
<g id="Truck">
	<g>
		<polygon class="st2" points="172.9,188.7 26.6,188.7 26.6,77.9 165.3,75 		"/>
		<polygon class="st2" points="243.7,188.7 172.4,188.7 169.5,136.2 240.8,136.2 		"/>
		<path class="st2" d="M88.2,61.2C88.2,83.7,71,102,49.7,102S11.1,85.9,11.1,63.3s17.3-40.8,38.6-40.8S88.2,38.7,88.2,61.2z"/>
		<path d="M46.6,33.9c0,9.5,0,18.9,0.1,28.4c0,1.6,1.4,3.1,3,3c6.8-0.3,13.7-0.3,20.5-0.6c1.6-0.1,3-1.4,3-3c0-1.6-1.4-3.1-3-3
			c-6.8,0.3-13.7,0.3-20.5,0.6c1,1,2,2,3,3c0-9.5,0-18.9-0.1-28.4C52.7,30,46.6,29.9,46.6,33.9L46.6,33.9z"/>
		<circle class="st2" cx="56.9" cy="204.3" r="18.4"/>
		<path class="st2" d="M122.3,204.3c0,3.5-1,6.8-2.7,9.6c-3.2,5.3-9,8.8-15.7,8.8c-5.6,0-10.6-2.5-14-6.4c-2.8-3.2-4.4-7.4-4.4-12
			c0-10.2,8.2-18.4,18.4-18.4C114.1,185.9,122.3,194.1,122.3,204.3z"/>
		<circle class="st2" cx="219.8" cy="205.1" r="18.4"/>
	</g>
	<g>
		<g>
			<polygon class="st3" points="167.7,183.5 21.4,183.5 21.4,72.7 160.2,69.8 			"/>
			<polygon class="st3" points="238.5,183.5 167.2,183.5 164.3,131 235.7,131 			"/>
			<path class="st3" d="M83.1,56c0,22.5-17.3,40.8-38.6,40.8S5.9,80.7,5.9,58.2s17.3-40.8,38.6-40.8S83.1,33.5,83.1,56z"/>
			<g>
				<g>
					<path class="st4" d="M41.5,28.7c0,9.5,0,18.9,0.1,28.4c0,1.6,1.4,3.1,3,3c6.8-0.3,13.7-0.3,20.5-0.6c1.6-0.1,3-1.4,3-3
						c0-1.6-1.4-3.1-3-3c-6.8,0.3-13.7,0.3-20.5,0.6c1,1,2,2,3,3c0-9.5,0-18.9-0.1-28.4C47.5,24.8,41.4,24.8,41.5,28.7L41.5,28.7z"
						/>
				</g>
			</g>
			<circle class="st3" cx="51.7" cy="199.1" r="18.4"/>
			<path class="st3" d="M117.1,199.1c0,3.5-1,6.8-2.7,9.6c-3.2,5.3-9,8.8-15.7,8.8c-5.6,0-10.6-2.5-14-6.4c-2.8-3.2-4.4-7.4-4.4-12
				c0-10.2,8.2-18.4,18.4-18.4C108.9,180.7,117.1,188.9,117.1,199.1z"/>
			<circle class="st3" cx="214.6" cy="200" r="18.4"/>
		</g>
	</g>
</g>
<g id="Coin" class="st0">
	<g class="st1">
		<ellipse class="st5" cx="104.3" cy="-222.8" rx="90" ry="86.8"/>
		<text transform="matrix(1 0 0 1 19.4943 -203.7123)" style="font-family:'Goldman-Bold'; font-size:60.6834px;">0 KR</text>
	</g>
	<g class="st1">
		<g>
			<ellipse class="st6" cx="100.9" cy="-226.2" rx="90" ry="86.8"/>
			<text transform="matrix(1 0 0 1 16.0529 -207.1537)" style="fill:#C6C6C5; font-family:'Goldman-Bold'; font-size:60.6834px;">0 KR</text>
		</g>
	</g>
</g>
<g id="Phone_x2F_Card" class="st0">
	<g id="Phone" class="st1">
		<g>
			<rect x="311.6" y="-308.9" class="st7" width="119.9" height="208.6"/>
			<circle class="st8" cx="371.6" cy="-111.4" r="6.8"/>
			<text transform="matrix(1 0 0 1 310.2274 -201.6018)" style="font-family:'Goldman-Regular'; font-size:73.5076px;">KR</text>
			<line class="st8" x1="311.6" y1="-124" x2="431.5" y2="-124"/>
			<line class="st8" x1="311.6" y1="-290.3" x2="431.5" y2="-290.3"/>
		</g>
		<g>
			<g>
				<rect x="307.4" y="-313.2" class="st9" width="119.9" height="208.6"/>
				<circle class="st10" cx="367.3" cy="-115.7" r="6.8"/>
				
					<text transform="matrix(1 0 0 1 305.9754 -205.8538)" style="fill:#C6C6C5; font-family:'Goldman-Regular'; font-size:73.5076px;">KR</text>
				<line class="st10" x1="307.4" y1="-128.3" x2="427.3" y2="-128.3"/>
				<line class="st10" x1="307.4" y1="-294.5" x2="427.3" y2="-294.5"/>
			</g>
		</g>
	</g>
	<g id="Card" class="st1">
		<g>
			<rect x="369.7" y="-192.7" class="st7" width="115.1" height="67.8"/>
			<line class="st8" x1="369.4" y1="-174.6" x2="483.7" y2="-174.6"/>
			<line class="st8" x1="422.9" y1="-156.7" x2="430.9" y2="-156.7"/>
			<line class="st8" x1="391" y1="-156.7" x2="399" y2="-156.7"/>
			<line class="st8" x1="374.5" y1="-156.7" x2="382.5" y2="-156.7"/>
			<line class="st8" x1="407.1" y1="-156.7" x2="415.2" y2="-156.7"/>
		</g>
		<g>
			<g>
				<rect x="365.4" y="-196.9" class="st9" width="115.1" height="67.8"/>
				<line class="st10" x1="365.2" y1="-178.9" x2="479.5" y2="-178.9"/>
				<line class="st10" x1="418.6" y1="-160.9" x2="426.6" y2="-160.9"/>
				<line class="st10" x1="386.7" y1="-160.9" x2="394.8" y2="-160.9"/>
				<line class="st10" x1="370.2" y1="-160.9" x2="378.2" y2="-160.9"/>
				<line class="st10" x1="402.9" y1="-160.9" x2="410.9" y2="-160.9"/>
			</g>
		</g>
	</g>
</g>
</svg>
