<?xml version="1.0" encoding="utf-8"?>
<!-- Generator: Adobe Illustrator 25.0.1, SVG Export Plug-In . SVG Version: 6.00 Build 0)  -->
<svg version="1.1" id="Lag_1" xmlns="http://www.w3.org/2000/svg" xmlns:xlink="http://www.w3.org/1999/xlink" x="0px" y="0px"
	 viewBox="0 0 248.5 235.7" style="enable-background:new 0 0 248.5 235.7;" xml:space="preserve">
<style type="text/css">
	.st0{fill:url(#SVGID_1_);}
	.st1{fill:#E6007E;stroke:#B2B2B2;stroke-width:3.0874;stroke-miterlimit:10;}
	.st2{fill:#E6007E;stroke:#B2B2B2;stroke-width:3;stroke-miterlimit:10;}
	.st3{fill:#878787;}
	.st4{fill:#E6007E;stroke:#9D9D9C;stroke-width:3;stroke-miterlimit:10;}
</style>
<g id="Layer_1">
</g>
<g id="Truck">
	
		<linearGradient id="SVGID_1_" gradientUnits="userSpaceOnUse" x1="2.6" y1="119.3756" x2="245.8" y2="119.3756" gradientTransform="matrix(1 0 0 -1 0 237.2756)">
		<stop  offset="0" style="stop-color:#4D4D4D"/>
		<stop  offset="0.5155" style="stop-color:#FFFFFF"/>
		<stop  offset="1" style="stop-color:#4D4D4D"/>
	</linearGradient>
	<ellipse class="st0" cx="124.2" cy="117.9" rx="121.6" ry="116.2"/>
	<polygon class="st1" points="157.1,170.7 37,170.7 37,79.7 150.9,77.4 	"/>
	<polygon class="st2" points="215.2,170.7 156.7,170.7 154.3,127.6 212.9,127.6 	"/>
	<path class="st2" d="M87.6,66c0,18.5-14.2,33.5-31.7,33.5S24.3,86.3,24.3,67.8S38.5,34.3,56,34.3S87.6,47.5,87.6,66z"/>
	<g>
		<g>
			<path class="st3" d="M53.9,49.4c0,5.8,0,11.6,0.1,17.4c0,1.3,1.1,2.6,2.5,2.5c4.1-0.2,8.2-0.3,12.2-0.5c1.3-0.1,2.5-1.1,2.5-2.5
				c0-1.3-1.1-2.6-2.5-2.5c-4.1,0.2-8.2,0.3-12.2,0.5c0.8,0.8,1.7,1.7,2.5,2.5c0-5.8,0-11.6-0.1-17.4c0-1.4-1.1-2.5-2.5-2.5
				C55.1,46.9,53.9,48,53.9,49.4L53.9,49.4z"/>
		</g>
	</g>
	<circle class="st4" cx="61.8" cy="183.5" r="15.1"/>
	<path class="st4" d="M115.6,183.5c0,2.9-0.8,5.6-2.2,7.9c-2.7,4.3-7.4,7.2-12.9,7.2c-4.6,0-8.7-2-11.5-5.3
		c-2.3-2.6-3.6-6.1-3.6-9.8c0-8.3,6.8-15.1,15.1-15.1C108.8,168.4,115.6,175.1,115.6,183.5z"/>
	<circle class="st4" cx="195.6" cy="184.2" r="15.1"/>
</g>
</svg>
